<svg width="165" height="36" viewBox="0 0 165 36" fill="none" xmlns="http://www.w3.org/2000/svg">
    <g clip-path="url(#clip0_676_900)">
        <path d="M55.192 23.8798H50.2568L51.79 22.278C52.9225 21.1152 53.8172 20.0236 54.4534 19.0308C55.0872 18.015 55.3948 16.9602 55.3948 15.8065C55.3948 12.6811 52.813 10.3232 49.39 10.3232C45.5685 10.3232 43.2873 13.1982 43.2873 15.9789C43.2873 16.4064 43.3269 16.8085 43.4085 17.1762C43.4737 17.475 43.7487 17.691 44.0633 17.691H46.8058C46.9992 17.691 47.1833 17.6083 47.3115 17.4635C47.4373 17.321 47.4956 17.1326 47.4699 16.9441C47.4233 16.5994 47.4 16.3535 47.4 16.172C47.4 14.8896 48.162 14.0623 49.341 14.0623C50.5201 14.0623 51.2587 14.8528 51.2587 16.0754C51.2587 17.1211 50.6622 18.1506 49.0568 19.8811L43.3153 26.024C43.2011 26.1458 43.1382 26.3043 43.1382 26.4698V27.4028L55.1967 27.3799C55.5649 27.3799 55.8631 27.0834 55.8631 26.7203V24.544C55.8631 24.1809 55.5625 23.8844 55.1944 23.8844L55.192 23.8798Z"
              fill="white"/>
        <path d="M65.7663 16.31C65.2746 16.31 64.7737 16.3536 64.268 16.4754L64.2307 14.2807H70.0165C70.3847 14.2807 70.6852 13.9843 70.6852 13.6212V11.2748C70.6852 10.9117 70.3847 10.6152 70.0165 10.6152H61.0221C60.654 10.6152 60.3534 10.9117 60.3534 11.2748V19.1711C60.3534 19.5342 60.654 19.8307 61.0221 19.8307H64.508C66.484 19.8307 67.486 20.4925 67.486 21.7956C67.486 23.0986 66.4817 23.9305 64.9275 23.9305C63.6319 23.9305 62.6579 23.3744 61.7678 22.1265C61.5534 21.8277 61.134 21.7519 60.8357 21.961L59.0065 23.2273C58.7246 23.4203 58.6361 23.7903 58.7992 24.0822C60.0574 26.3619 62.327 27.6696 65.0253 27.6696C68.7862 27.6696 71.622 25.1232 71.622 21.7473C71.622 18.1783 68.6767 16.3123 65.7663 16.3123V16.31Z"
              fill="white"/>
        <path d="M87.4345 10.6152H77.3543C76.9861 10.6152 76.6855 10.9117 76.6855 11.2748V26.7158C76.6855 27.0789 76.9861 27.3754 77.3543 27.3754H80.0549C80.4231 27.3754 80.7237 27.0789 80.7237 26.7158L80.6864 21.267H86.1017C86.4698 21.267 86.7704 20.9705 86.7704 20.6074V18.2611C86.7704 17.898 86.4698 17.6015 86.1017 17.6015L80.7237 17.6383L80.6864 14.283H87.4345C87.8027 14.283 88.1033 13.9866 88.1033 13.6235V11.2771C88.1033 10.914 87.8027 10.6175 87.4345 10.6175V10.6152Z"
              fill="white"/>
        <path d="M102.123 20.8396C103.836 19.8468 104.819 18.137 104.819 16.1468C104.819 12.8904 102.259 10.6152 98.5933 10.6152H92.7889C92.4207 10.6152 92.1201 10.9117 92.1201 11.2748V26.7158C92.1201 27.0789 92.4207 27.3754 92.7889 27.3754H95.4895C95.8577 27.3754 96.1583 27.0789 96.1583 26.7158L96.121 21.7036L98.0597 21.6876L102.088 27.1042C102.214 27.2743 102.415 27.3754 102.629 27.3754H105.602C105.854 27.3754 106.082 27.2375 106.199 27.0146C106.315 26.7917 106.292 26.5297 106.145 26.3275L102.126 20.8373L102.123 20.8396ZM100.707 16.1468C100.707 17.3763 99.9168 18.1117 98.5933 18.1117L96.1583 18.1485L96.121 14.2072H98.5933C99.8772 14.2072 100.707 14.9679 100.707 16.1468Z"
              fill="white"/>
        <path d="M114.066 10.6152H111.365C110.996 10.6152 110.696 10.9105 110.696 11.2748V26.7181C110.696 27.0824 110.996 27.3777 111.365 27.3777H114.066C114.435 27.3777 114.734 27.0824 114.734 26.7181V11.2748C114.734 10.9105 114.435 10.6152 114.066 10.6152Z"
              fill="white"/>
        <path d="M125.108 10.6153H120.094C119.725 10.6153 119.425 10.9118 119.425 11.2749V26.7159C119.425 27.079 119.725 27.3755 120.094 27.3755H125.103C125.157 27.3755 125.213 27.3755 125.266 27.3755C127.914 27.3755 130.295 26.4608 131.984 24.7901C133.543 23.2503 134.382 21.1728 134.345 18.9483C134.38 16.6961 133.592 14.7059 132.066 13.1915C130.363 11.5001 127.865 10.59 125.106 10.6107L125.108 10.6153ZM130.211 18.9483C130.211 21.8416 128.198 23.7123 125.085 23.7123L123.463 23.749L123.426 14.2831H125.085C128.247 14.2831 130.211 16.071 130.211 18.9483Z"
              fill="white"/>
        <path d="M144.793 10.7185C144.686 10.4772 144.446 10.3232 144.18 10.3232H143.481C143.216 10.3232 142.976 10.4795 142.868 10.7185L135.864 26.4514C135.773 26.656 135.792 26.8904 135.915 27.0765C136.039 27.265 136.248 27.3753 136.477 27.3753H139.364C139.632 27.3753 139.872 27.219 139.979 26.9754L140.692 25.2817L146.907 25.2587L147.655 26.9754C147.762 27.219 148.002 27.3753 148.27 27.3753H151.157C151.383 27.3753 151.593 27.2627 151.716 27.0765C151.84 26.8904 151.86 26.656 151.77 26.4514L144.791 10.7185H144.793ZM145.49 21.8851L142.146 21.9356L143.819 17.7531L145.49 21.8851Z"
              fill="white"/>
        <path d="M164.909 10.9439C164.788 10.7393 164.571 10.6152 164.331 10.6152H161.381C161.137 10.6152 160.913 10.7462 160.796 10.9554L157.616 16.6225L154.412 10.9531C154.293 10.7439 154.069 10.6152 153.827 10.6152H150.854C150.614 10.6152 150.397 10.737 150.276 10.9439C150.155 11.1484 150.155 11.3943 150.273 11.6011L155.586 20.8074V26.7181C155.586 27.0812 155.887 27.3777 156.255 27.3777H158.956C159.324 27.3777 159.624 27.0812 159.624 26.7181L159.62 20.8005L164.914 11.6011C165.033 11.3943 165.033 11.1484 164.911 10.9439H164.909Z"
              fill="white"/>
        <path d="M20.6825 16.1556L11.8862 24.5943L19.4266 32.2378C20.2934 33.1157 20.2724 34.5199 19.3823 35.3725C18.4922 36.2274 17.0685 36.2067 16.204 35.3288L7.09544 26.0973C6.22862 25.2194 6.24959 23.8152 7.13971 22.9626C7.13971 22.9626 7.14204 22.9626 7.14437 22.9603C7.1467 22.958 7.14437 22.958 7.1467 22.9557L17.5461 12.9773C18.4363 12.1224 19.86 12.1431 20.7245 13.021C21.5913 13.8989 21.5703 15.303 20.6802 16.1556H20.6825Z"
              fill="white"/>
        <path d="M35.8725 15.9994L20.7941 0.712338C20.7941 0.712338 20.7825 0.703145 20.7755 0.698549C20.7662 0.689356 20.7615 0.680164 20.7545 0.670972C19.8877 -0.206909 18.4663 -0.225294 17.5762 0.627307L0.680323 16.8405C-0.209793 17.6954 -0.228434 19.0973 0.63605 19.9752C1.50286 20.853 2.92425 20.8714 3.81437 20.0188L19.0978 5.35453L32.6499 19.0927C33.5168 19.9706 34.9381 19.9889 35.8283 19.1363C36.7184 18.2814 36.737 16.8796 35.8725 16.0017V15.9994Z"
              fill="white"/>
        <path d="M22.1439 26.3151C23.028 25.4549 23.0377 24.0508 22.1656 23.1789C21.2934 22.3069 19.8697 22.2974 18.9856 23.1575C18.1016 24.0177 18.0919 25.4218 18.964 26.2937C19.8361 27.1657 21.2598 27.1752 22.1439 26.3151Z"
              fill="white"/>
    </g>
    <defs>
        <clipPath id="clip0_676_900">
            <rect width="165" height="36" fill="white"/>
        </clipPath>
    </defs>
</svg>
